<svg width="94" height="94" viewBox="0 0 94 94" fill="none" xmlns="http://www.w3.org/2000/svg">
<path d="M46.9885 46.9885L35.0009 47.8284C23.091 52.5874 14.6875 64.2252 14.6875 77.844V88.1253H79.3125V77.844C79.3125 64.2901 70.9447 52.6711 59.099 47.8774L46.9885 46.9885Z" fill="#433B6B"/>
<path d="M54.9606 47.3528H39.0394L39.0687 88.125H54.9606V47.3528Z" fill="#D3D3D3"/>
<path d="M55.4435 46.6481L54.9606 47.1175V88.0956L63.0387 65.0069C63.3912 63.9494 63.1269 62.8038 62.3337 62.04L58.3387 58.1331C57.8394 57.6338 58.1919 56.8113 58.8969 56.8113H61.9812C62.5981 56.8113 63.0094 56.165 62.745 55.6069L59.1319 47.9106C59.128 47.9024 59.1242 47.8942 59.1204 47.886C57.9284 47.4027 56.7011 46.9883 55.4435 46.6481Z" fill="#8D65C5"/>
<path d="M34.9936 47.8313C34.9909 47.8381 34.9883 47.8448 34.9856 47.8519L31.255 55.7538C30.9906 56.3119 31.4312 56.9581 32.0481 56.9581H35.1325C35.8375 56.9581 36.1606 57.81 35.6906 58.28L31.6956 62.1869C30.9319 62.9506 30.6381 64.0963 31.02 65.1244L39.0394 88.0956H39.0687V47.2644L37.8203 46.8514C36.8586 47.1354 35.9156 47.4627 34.9936 47.8313Z" fill="#8D65C5"/>
<path d="M46.9709 54.8728L42.0359 55.8128L44.9147 62.0109L40.9197 88.125H52.9928L49.0272 62.0109L51.8766 55.8128L46.9709 54.8728Z" fill="#321B41"/>
<path d="M47 44.9734H39.0394V58.8972C39.0394 59.8078 40.0969 60.3365 40.8312 59.749L47 54.8434L53.1687 59.749C53.9031 60.3365 54.9606 59.8078 54.9606 58.8972V44.9734H47Z" fill="#E6E6E6"/>
<path d="M47 54.3438C43.7488 54.3438 41.125 51.5117 41.125 48.0026V40.1224C41.125 36.6133 43.7488 33.7812 47 33.7812C50.2512 33.7812 52.875 36.6133 52.875 40.1224V48.0026C52.875 51.5117 50.2512 54.3438 47 54.3438Z" fill="#B87A66"/>
<path d="M65.3594 15.5394C64.4781 14.0119 63.0975 12.9544 61.57 12.4256C59.8956 11.8675 58.4269 10.7513 57.5162 9.25313C56.2825 7.22625 54.05 5.875 51.5237 5.875C50.5544 5.875 49.6144 6.08063 48.7919 6.43313C47.6462 6.9325 46.3537 6.9325 45.2081 6.43313C44.3562 6.08063 43.4456 5.875 42.4762 5.875C39.9794 5.875 37.7762 7.1675 36.5425 9.13562C35.5731 10.6631 34.1337 11.8381 32.4006 12.4256C30.785 12.9837 29.375 14.1294 28.5232 15.745C27.2601 18.095 27.5245 20.915 28.9639 23.0006C29.4631 23.7644 29.7569 24.675 29.7569 25.5856V37.835C29.7569 40.5669 31.49 42.9756 34.075 43.8862L39.6269 45.7956V23.9994C40.0675 23.5881 40.42 23.0888 40.7431 22.5306C41.2425 21.6788 41.5362 20.7388 41.6244 19.8281C41.8887 19.8575 42.1825 19.8869 42.4469 19.8869C44.18 19.8869 45.7662 19.27 46.9706 18.2125C48.2044 19.2406 49.7612 19.8869 51.4944 19.8869C51.7881 19.8869 52.0525 19.8575 52.3169 19.8281C52.4344 20.7681 52.6987 21.6788 53.1981 22.5306C53.5212 23.0888 53.9031 23.5588 54.3144 23.9994V45.825L59.8662 43.9156C62.4512 43.0344 64.1844 40.5963 64.1844 37.8644V25.615C64.1844 24.7044 64.4781 23.7938 65.0069 23.03C66.5344 20.8563 66.74 17.9481 65.3594 15.5394Z" fill="#593B39"/>
<path d="M37.5122 31.1081C37.5122 33.8177 35.3158 36.0138 32.6065 36.0138C29.897 36.0138 27.7008 33.8177 27.7008 31.1081C27.7008 28.399 29.897 26.2026 32.6065 26.2026C35.3158 26.2026 37.5122 28.399 37.5122 31.1081Z" fill="#BB806E"/>
<path d="M66.27 31.1081C66.27 33.8177 64.0736 36.0138 61.3644 36.0138C58.6551 36.0138 56.4587 33.8177 56.4587 31.1081C56.4587 28.399 58.6551 26.2026 61.3644 26.2026C64.0736 26.2026 66.27 28.399 66.27 31.1081Z" fill="#BB806E"/>
<path d="M31.5781 24.0526C31.7993 18.8529 36.2314 14.6875 41.6464 14.6875H45.4878C46.3153 14.6875 47.0247 15.1747 47.3496 15.8912C48.5316 18.4418 51.1616 20.0466 54.028 20.0466H58.2539C60.618 20.1613 62.4797 22.0814 62.4204 24.4027L62.3852 25.8788L61.4748 40.079C60.6767 45.7248 55.742 49.9375 49.8611 49.9375H44.2467C38.3955 49.9375 33.4311 45.7248 32.6626 40.079L31.5781 24.0526Z" fill="#C68D7B"/>
<path d="M35.7788 30.1975C36.2194 28.3761 37.8644 27.0249 39.8325 27.0249C41.8888 27.0249 43.5631 28.4642 43.945 30.4031C44.0331 30.8438 43.71 31.2256 43.2694 31.2256H36.5719C36.0431 31.2256 35.6319 30.6969 35.7788 30.1975Z" fill="white"/>
<path d="M58.2506 30.1975C57.81 28.3761 56.165 27.0249 54.1969 27.0249C52.1406 27.0249 50.4662 28.4642 50.0844 30.4031C49.9962 30.8438 50.3194 31.2256 50.76 31.2256H57.4575C57.9862 31.2256 58.3681 30.7262 58.2506 30.1975Z" fill="white"/>
<path d="M37.7762 30.5206C37.7762 29.0518 38.9806 27.8474 40.4494 27.8474C41.9475 27.8474 43.1519 29.0518 43.1225 30.5206C43.1225 30.7556 43.0931 30.9906 43.0344 31.2256H37.8644C37.8056 30.9906 37.7762 30.7556 37.7762 30.5206Z" fill="#7D4533"/>
<path d="M56.2531 30.5206C56.2531 29.0518 55.0487 27.8474 53.58 27.8474C52.0819 27.8474 50.9069 29.0518 50.9069 30.5206C50.9069 30.7556 50.9363 30.9906 50.995 31.2256H56.165C56.2238 30.9906 56.2531 30.7556 56.2531 30.5206Z" fill="#7D4533"/>
<path d="M40.4494 28.9931C41.3013 28.9931 41.9769 29.6688 41.9769 30.5206C41.9769 30.785 41.9181 31.02 41.8006 31.2256H39.0981C38.9806 31.02 38.9219 30.785 38.9219 30.5206C38.9219 29.6688 39.5975 28.9931 40.4494 28.9931Z" fill="black"/>
<path d="M53.58 28.9931C52.7281 28.9931 52.0525 29.6688 52.0525 30.5206C52.0525 30.785 52.1112 31.02 52.2287 31.2256H54.9312C55.0487 31.02 55.1075 30.785 55.1075 30.5206C55.1075 29.6688 54.4319 28.9931 53.58 28.9931Z" fill="black"/>
<path d="M40.0088 29.4338C40.0088 29.6934 39.7984 29.9038 39.5388 29.9038C39.2794 29.9038 39.0688 29.6934 39.0688 29.4338C39.0688 29.1741 39.2794 28.9637 39.5388 28.9637C39.7984 28.9637 40.0088 29.1741 40.0088 29.4338Z" fill="white"/>
<path d="M53.2275 29.4338C53.2275 29.6934 53.0172 29.9038 52.7575 29.9038C52.4981 29.9038 52.2875 29.6934 52.2875 29.4338C52.2875 29.1741 52.4981 28.9637 52.7575 28.9637C53.0172 28.9637 53.2275 29.1741 53.2275 29.4338Z" fill="white"/>
<path d="M45.9839 30.226L44.5275 35.3328C44.2252 36.378 44.9396 37.4531 45.9563 37.4531H48.0995C49.1162 37.4531 49.8306 36.378 49.5283 35.3328L48.0722 30.226C47.7699 29.0913 46.3135 29.0913 45.9839 30.226Z" fill="#AB6A55"/>
<path d="M47.0015 40.2608C45.3844 40.2608 43.8572 39.8531 42.5697 39.1316C42.1205 38.8805 41.6714 39.4139 41.9407 39.8531C43.0188 41.5783 44.8753 42.7389 47.0015 42.7389C49.1276 42.7389 50.9841 41.5783 52.0622 39.8531C52.3319 39.4139 51.8528 38.9119 51.4336 39.1316C50.1158 39.8531 48.6186 40.2608 47.0015 40.2608Z" fill="#990838"/>
<path d="M36.2637 24.7536C36.4003 24.8508 36.564 24.903 36.7317 24.9027C36.9132 24.9017 37.0892 24.8396 37.2311 24.7265C38.5288 23.8654 40.0913 23.4957 41.6373 23.6837C41.7419 23.6971 41.8479 23.6894 41.9493 23.661C42.0506 23.6326 42.1452 23.584 42.2275 23.5182C42.3097 23.4524 42.3778 23.3708 42.4281 23.278C42.478 23.1853 42.5089 23.0835 42.5186 22.9787C42.54 22.7691 42.4786 22.5594 42.3473 22.3947C42.2163 22.2299 42.0256 22.1232 41.8165 22.0974C39.851 21.8426 37.8609 22.3296 36.2352 23.4633C36.1031 23.5665 36.0064 23.7084 35.9588 23.8692C35.9109 24.03 35.9148 24.2017 35.9697 24.3603C36.0243 24.5188 36.1271 24.6563 36.2637 24.7536Z" fill="#593B39"/>
<path d="M56.83 24.7382C56.9702 24.8447 57.1414 24.9025 57.3177 24.9027C57.4854 24.904 57.6525 24.8525 57.7894 24.7557C57.9266 24.6588 58.0297 24.5214 58.0847 24.3627C58.1393 24.2041 58.1431 24.0323 58.0952 23.8714C58.0471 23.7106 57.9498 23.5689 57.817 23.4663C56.1894 22.3364 54.2013 21.8488 52.2358 22.0974C52.0287 22.1281 51.8419 22.2382 51.7147 22.4044C51.5875 22.5706 51.5299 22.7798 51.5546 22.9876C51.579 23.1954 51.6832 23.3856 51.8457 23.5177C52.0078 23.6498 52.2152 23.7136 52.4238 23.6954C53.9701 23.5042 55.5334 23.8743 56.83 24.7382Z" fill="#593B39"/>
</svg>
