<svg width="86" height="86" viewBox="0 0 86 86" fill="none" xmlns="http://www.w3.org/2000/svg">
<path d="M24.1875 48.4048C25.2145 47.5572 26.2998 46.7778 27.4364 46.0732L43 45.6875L58.3712 45.9686C59.5778 46.7053 60.7276 47.526 61.8125 48.4226L64.5 64.5L61.8125 80.625H24.1875L21.5 64.5L24.1875 48.4048Z" fill="#E6E6E6"/>
<path d="M44.3438 65.3874V80.625H41.6562V65.037L30.9062 47.0312L34.5244 42.8869L43 41.6562L51.4589 42.8869L55.0938 47.0312L44.3438 65.3874Z" fill="#00A6ED"/>
<path d="M61.8125 48.45C68.3762 53.8744 72.5625 62.0761 72.5625 71.2459V80.6253H61.8125V48.45Z" fill="#F4F4F4"/>
<path d="M51.6368 42.9677C54.1891 43.7477 56.5953 44.864 58.8036 46.265L59.3131 51.6274C59.34 51.9499 59.125 52.2455 58.8025 52.2993L56.6794 52.6755C56.1956 52.7562 56.0075 53.3205 56.33 53.6968L58.3725 55.9543C58.5875 56.1962 58.5875 56.5724 58.3456 56.8143L45.2306 70.198C44.9081 70.5205 44.3438 70.2787 44.3438 69.8218V60.1199C44.3438 60.0124 44.3706 59.9049 44.3975 59.8243L51.6368 42.9677Z" fill="#F4F4F4"/>
<path d="M27.2048 46.2457C29.4125 44.8487 31.8184 43.7366 34.3715 42.96L41.6025 59.7705L41.6162 59.8238C41.6377 59.9065 41.6562 59.9769 41.6562 60.0662V69.768C41.6562 70.2518 41.0919 70.4668 40.7694 70.1443L27.6544 56.7605C27.4125 56.5187 27.4125 56.1693 27.6275 55.9005L29.67 53.6699C29.9925 53.3205 29.8044 52.7293 29.3206 52.6487L27.1975 52.2724C26.8749 52.1918 26.6599 51.923 26.7136 51.5737L27.2048 46.2457Z" fill="#F4F4F4"/>
<path d="M24.1875 48.432V80.6253H13.4375V71.2459C13.4375 62.056 17.6201 53.8521 24.1875 48.432Z" fill="#F4F4F4"/>
<path d="M72.5625 61.8125C74.0406 61.8125 75.25 62.9152 75.25 64.2632V69.875H69.875V64.2632C69.9019 62.9152 71.0844 61.8125 72.5625 61.8125Z" fill="#E4B29A"/>
<path d="M73.1537 53.75H72.5625V57.6197L68.5312 60.4688L64.5 57.6197V53.75H63.9088C63.4519 53.75 63.0756 53.1966 63.0756 52.5248V52.2877C63.0756 51.6159 63.4519 51.0625 63.9088 51.0625H73.1537C73.6106 51.0625 73.9869 51.6159 73.9869 52.2877V52.5248C73.96 53.1966 73.5837 53.75 73.1537 53.75Z" fill="#B4F6FC"/>
<path d="M72.5625 57.6197H64.5V74.5778H72.5625V57.6197Z" fill="#C3EF3C"/>
<path d="M65.2638 60.0116H66.3767C66.4965 60.0116 66.6057 59.7697 66.5949 59.4741V59.3666C66.5949 59.071 66.4965 58.8291 66.3767 58.8291H65.2638C65.1437 58.8291 65.0456 59.071 65.0456 59.3666V59.4741C65.0456 59.7697 65.1437 60.0116 65.2638 60.0116Z" fill="#008463"/>
<path d="M65.2638 64.8222H66.3767C66.4965 64.8222 66.6057 64.5804 66.5949 64.2847V64.1772C66.5949 63.8816 66.4965 63.6397 66.3767 63.6397H65.2638C65.1437 63.6397 65.0456 63.8816 65.0456 64.1772V64.2847C65.0456 64.5804 65.1437 64.8222 65.2638 64.8222Z" fill="#008463"/>
<path d="M63.1807 68.5312C63.2052 67.4563 64.0619 66.5156 65.0657 66.5156H73.1202C74.2951 66.5156 75.25 67.5638 75.25 68.8538V78.2869C75.25 79.5769 74.2951 80.625 73.1202 80.625H65.0657C64.0619 80.625 63.2052 79.7919 63.1807 78.69C63.1562 77.9644 63.4745 77.3194 63.9886 76.9431C63.4745 76.5937 63.1562 75.9756 63.1562 75.2769C63.1562 74.5781 63.4989 73.96 63.9886 73.6106C63.4745 73.2612 63.1562 72.6431 63.1562 71.9444C63.1562 71.2456 63.4989 70.6275 63.9886 70.2781C63.4989 69.9019 63.1562 69.2569 63.1807 68.5312Z" fill="#EEBFAA"/>
<path d="M43 49.7188C40.0255 49.7188 37.625 47.1277 37.625 43.9172V36.7078C37.625 33.4973 40.0255 30.9062 43 30.9062C45.9745 30.9062 48.375 33.4973 48.375 36.7078V43.9172C48.375 47.1277 45.9745 49.7188 43 49.7188Z" fill="#E4B29A"/>
<path d="M34.3196 28.4604C34.3196 30.939 32.3102 32.9485 29.8315 32.9485C27.3526 32.9485 25.3433 30.939 25.3433 28.4604C25.3433 25.9817 27.3526 23.9723 29.8315 23.9723C32.3102 23.9723 34.3196 25.9817 34.3196 28.4604Z" fill="#E4B29A"/>
<path d="M60.63 28.4604C60.63 30.939 58.6206 32.9485 56.1419 32.9485C53.6632 32.9485 51.6537 30.939 51.6537 28.4604C51.6537 25.9817 53.6632 23.9723 56.1419 23.9723C58.6206 23.9723 60.63 25.9817 60.63 28.4604Z" fill="#E4B29A"/>
<path d="M41.8049 8.0625C34.3153 8.0625 28.3926 14.5318 28.9237 22.1651L29.9861 37.4586C30.4376 42.2499 34.156 45.6875 38.671 45.6875H47.329C51.844 45.6875 55.5625 42.2499 56.014 37.4586L57.0763 22.1651C57.6074 14.5589 51.6847 8.0625 44.1951 8.0625H41.8049Z" fill="#EEBFAA"/>
<path d="M56.9293 11.8027L55.8051 11.2383C55.0209 10.8352 54.2888 10.2977 53.6613 9.65269L51.4654 7.39519C49.8182 5.70206 47.3868 5.13769 45.1906 5.91706C43.7788 6.42769 42.2102 6.42769 40.7984 5.91706C38.89 4.92269 36.5632 5.32582 35.0206 6.88457L32.3537 9.62581C31.7265 10.2708 30.9944 10.8083 30.1839 11.2383L29.0857 11.8027C27.0204 12.8777 25.8701 15.2158 26.2884 17.5539L27.7785 25.9658C27.9355 26.7989 28.6415 27.4171 29.4518 27.4439C29.4518 27.4439 29.2951 25.0521 29.1903 23.5202C29.1382 22.7408 29.4518 21.9614 30.0269 21.4239L30.5238 20.9671C31.2035 20.3489 31.5695 19.4621 31.5695 18.5483V16.1833C31.5695 15.5114 32.014 14.9202 32.6416 14.7589C34.3409 14.3289 37.9749 13.5764 42.9946 13.5764C48.0143 13.5764 51.6484 14.3289 53.3477 14.7589C53.975 14.9202 54.4195 15.5114 54.4195 16.1833V18.5483C54.4195 19.4621 54.8116 20.3489 55.4652 20.9671L55.9882 21.4508C56.5633 21.9883 56.8772 22.7408 56.8248 23.5471C56.7202 25.0789 56.5633 27.4439 56.5633 27.4439C57.3738 27.3902 58.0535 26.7989 58.2105 25.9658L59.7007 17.5539C60.1452 15.2158 59.021 12.8777 56.9293 11.8027Z" fill="#FFF9BA"/>
<path d="M42.0704 27.6536L40.7379 32.3258C40.4614 33.282 41.115 34.2656 42.0451 34.2656H44.0059C44.9361 34.2656 45.5897 33.282 45.3131 32.3258L43.9809 27.6536C43.7044 26.6154 42.3719 26.6154 42.0704 27.6536Z" fill="#D19479"/>
<path d="M50.3218 17.4688H35.7867C31.6612 17.4688 28.2462 20.7385 28.2188 24.8459C28.2188 28.9264 31.5792 32.25 35.7048 32.25C38.3004 32.25 40.5955 30.9259 41.9341 28.9264C42.4534 28.1696 43.5735 28.1696 44.0925 28.9264C45.4859 30.9799 47.8628 32.304 50.5677 32.2229C54.4474 32.0879 57.7259 28.764 57.7807 24.9269C57.8353 20.8466 54.4748 17.4688 50.3218 17.4688Z" fill="#E4B29A"/>
<path d="M33.0829 28.2231C33.486 26.5838 34.991 25.3475 36.7647 25.3475C38.6191 25.3475 40.151 26.6644 40.5004 28.4112C40.581 28.7874 40.2854 29.1368 39.8822 29.1368H33.8085C33.3247 29.1368 32.9485 28.6799 33.0829 28.2231Z" fill="white"/>
<path d="M53.4813 28.2231C53.0781 26.5838 51.5731 25.3475 49.7994 25.3475C47.945 25.3475 46.4131 26.6644 46.0638 28.4112C45.9831 28.7874 46.2788 29.1368 46.6819 29.1368H52.7556C53.2394 29.1368 53.5888 28.7068 53.4813 28.2231Z" fill="white"/>
<path d="M34.8837 28.5189C34.8837 27.1752 35.9856 26.0732 37.3294 26.0732C38.6731 26.0732 39.7481 27.1483 39.7481 28.4921C39.7481 28.7339 39.7212 28.9489 39.6675 29.1639H34.9644C34.9106 28.9489 34.8837 28.7339 34.8837 28.5189Z" fill="#7D4533"/>
<path d="M51.6804 28.5189C51.6804 27.1752 50.5785 26.0732 49.2347 26.0732C47.891 26.0732 46.816 27.1483 46.816 28.5189C46.816 28.7339 46.8429 28.9489 46.8966 29.1639H51.5997C51.6535 28.9489 51.6804 28.7339 51.6804 28.5189Z" fill="#7D4533"/>
<path d="M37.3294 27.094C38.1087 27.094 38.7269 27.7122 38.7269 28.4915C38.7269 28.7334 38.6462 28.9484 38.5656 29.1365H36.0931C35.9856 28.9484 35.9319 28.7334 35.9319 28.4915C35.9319 27.7122 36.55 27.094 37.3294 27.094Z" fill="black"/>
<path d="M49.2347 27.094C48.4554 27.094 47.8372 27.7122 47.8372 28.4915C47.8372 28.7334 47.9179 28.9484 47.9985 29.1365H50.471C50.5785 28.9484 50.6322 28.7334 50.6322 28.4915C50.6322 27.7122 50.0141 27.094 49.2347 27.094Z" fill="black"/>
<path d="M36.926 27.5517C36.926 27.7893 36.7336 27.9817 36.496 27.9817C36.2587 27.9817 36.066 27.7893 36.066 27.5517C36.066 27.3141 36.2587 27.1217 36.496 27.1217C36.7336 27.1217 36.926 27.3141 36.926 27.5517Z" fill="white"/>
<path d="M48.9125 27.5517C48.9125 27.7893 48.7201 27.9817 48.4825 27.9817C48.2449 27.9817 48.0525 27.7893 48.0525 27.5517C48.0525 27.3141 48.2449 27.1217 48.4825 27.1217C48.7201 27.1217 48.9125 27.3141 48.9125 27.5517Z" fill="white"/>
<path d="M51.7075 24.0041C52.0031 24.1923 52.2987 24.2998 52.6212 24.2998C53.0781 24.2998 53.5081 24.1116 53.7769 23.7085C54.2875 23.0635 54.1531 22.1229 53.5081 21.6123C53.4275 21.5316 51.17 19.8116 47.8912 20.2148C47.0581 20.3223 46.4669 21.0748 46.5744 21.881C46.6819 22.7141 47.4075 23.3054 48.2406 23.1979C50.1936 22.9635 51.5411 23.8898 51.6962 23.9964C51.7013 23.9999 51.7075 24.0041 51.7075 24.0041Z" fill="#A56953"/>
<path d="M32.7606 23.7084C33.0294 24.0847 33.4863 24.2996 33.9431 24.2996C34.2388 24.2996 34.5613 24.1921 34.83 24.004C34.8838 23.9503 36.2544 22.9559 38.2969 23.1978C39.13 23.2784 39.8556 22.6871 39.9631 21.8809C40.0438 21.0478 39.4525 20.3221 38.6463 20.2146C35.3944 19.8384 33.11 21.5315 33.0294 21.6121C32.3844 22.1228 32.25 23.0365 32.7606 23.7084Z" fill="#A56953"/>
<path d="M43.0013 36.8341C41.5219 36.8341 40.1246 36.461 38.9467 35.8007C38.5358 35.5712 38.1249 36.0593 38.3713 36.461C39.3576 38.0394 41.0561 39.1012 43.0013 39.1012C44.9466 39.1012 46.6451 38.0394 47.6314 36.461C47.8781 36.0593 47.4397 35.6 47.0562 35.8007C45.8506 36.461 44.4808 36.8341 43.0013 36.8341Z" fill="#990838"/>
<path d="M27.5101 24.8412C27.5402 20.3281 31.2881 16.7601 35.7867 16.7601H50.3218C54.8618 16.7601 58.5493 20.4531 58.4894 24.9365C58.4292 29.1569 54.8443 32.7832 50.5925 32.9313L50.589 32.9316C47.6332 33.02 45.0317 31.5714 43.5074 29.326C43.2701 28.9817 42.7584 28.9815 42.5203 29.3247C41.0551 31.5107 38.5444 32.9587 35.7048 32.9587C31.1954 32.9587 27.5101 29.3249 27.5101 24.8459V24.8412ZM28.9274 24.8483C28.9288 28.5289 31.9643 31.5413 35.7048 31.5413C38.0547 31.5413 40.1327 30.3432 41.3453 28.5321L41.3499 28.5254C42.1505 27.3585 43.8764 27.3585 44.677 28.5254L44.6791 28.5284C45.9415 30.3889 48.0925 31.5875 50.5449 31.5147C54.0513 31.3916 57.0226 28.3706 57.072 24.9175C57.1212 21.2402 54.0875 18.1775 50.3218 18.1775H35.7867C32.0353 18.1775 28.9535 21.1477 28.9274 24.8483Z" fill="#9B9B9B"/>
</svg>
