<svg width="90" height="90" viewBox="0 0 90 90" fill="none" xmlns="http://www.w3.org/2000/svg">
<path d="M57.5862 14.0343H57.6C64.575 14.0343 70.2562 19.6875 70.2562 26.6906C70.2562 33.6656 64.575 39.3469 57.6 39.3469H26.7469C19.7719 39.3469 14.0907 33.6938 14.0907 26.6906C14.0907 19.7428 19.6997 14.0787 26.665 14.0346L29.5312 12.6562L28.8832 11.25C32.3058 7.7132 37.0586 5.625 42.1312 5.625C47.2027 5.625 51.957 7.71047 55.3748 11.25L54.8438 12.6562L57.5862 14.0343Z" fill="#7D4533"/>
<path d="M57.5876 14.0343C56.9351 13.0276 56.1932 12.1022 55.3778 11.25H28.8841C28.076 12.0959 27.3305 13.0296 26.6731 14.0345C26.6977 14.0344 26.7222 14.0343 26.7468 14.0343H57.5876Z" fill="#533566"/>
<path d="M62.4938 25.1439C63.5062 26.6626 64.0969 28.4625 64.0969 30.4312C64.0969 31.9219 63.7594 33.3281 63.1969 34.5656C63 34.9875 63 35.4937 63.1969 35.9156C63.8156 37.1812 64.1531 38.6156 64.125 40.1344C64.0406 45.2812 59.7656 49.3875 54.6188 49.3875H29.925C24.7781 49.3875 20.4749 45.2812 20.4187 40.1344C20.3906 38.6156 20.7281 37.1812 21.3468 35.9156C21.5437 35.4937 21.5437 34.9875 21.3468 34.5656C20.7562 33.3281 20.4187 31.9219 20.4187 30.4312C20.4187 28.4906 20.8968 26.5783 22.0218 25.1439C23.0343 23.822 23.8218 22.7814 24.4687 21.9376C25.8468 20.1658 27.9562 19.1251 30.1781 19.1251H51.4125C55.8563 19.1251 60.0187 21.3751 62.4656 25.0876C62.4656 25.1158 62.4938 25.1158 62.4938 25.1439Z" fill="#212121"/>
<path d="M22.5 50.6101C22.472 50.6332 22.4441 50.6562 22.4162 50.6793L22.4158 50.5969C18.0876 54.1946 14.7634 58.9657 12.9145 64.4169C11.8356 67.561 11.25 71.0193 11.25 74.5312V84.2906H11.3344L11.3345 84.3187L16.875 84.375H22.5L25.3125 67.5L22.5 50.6101Z" fill="#00D26A"/>
<path d="M61.875 84.375H73.125V74.5312C73.125 64.9429 68.7423 56.3569 61.875 50.672L59.0625 67.5L61.875 84.375Z" fill="#00D26A"/>
<path d="M56.25 46.9623L59.0625 56.25L56.25 64.6875L42.1875 67.5L28.125 64.6875L25.3125 56.25L28.125 46.9218C32.3364 44.7756 37.1062 43.5656 42.1594 43.5656C47.2303 43.5656 52.0208 44.7913 56.25 46.9623Z" fill="#00D26A"/>
<path d="M28.125 46.9218C26.1125 47.9475 24.2275 49.187 22.5 50.6104V84.3753H61.875V50.6722C60.1473 49.2418 58.2621 47.9953 56.25 46.9626V63.2815C56.25 64.0581 55.6203 64.6878 54.8438 64.6878H29.5312C28.7547 64.6878 28.125 64.0581 28.125 63.2815V46.9218Z" fill="#0084CE"/>
<path d="M30.9375 75.9375C30.9375 74.3842 32.1967 73.125 33.75 73.125H50.625C52.1783 73.125 53.4375 74.3842 53.4375 75.9375V84.375H30.9375V75.9375Z" fill="#46A4FB"/>
<path d="M33.3844 60.5531L42.1594 54.3938L50.9344 60.5531C51.975 61.2844 53.4094 60.5531 53.4094 59.2594V45.675C49.9219 44.325 46.125 43.5656 42.1594 43.5656C38.1938 43.5656 34.3969 44.325 30.9094 45.675V59.2875C30.9094 60.525 32.3438 61.2844 33.3844 60.5531Z" fill="#008463"/>
<path d="M44.7469 55.35L42.9188 56.9813C42.4688 57.375 41.8219 57.375 41.3719 56.9813L39.5438 55.35C37.5188 53.5219 36.3375 50.9062 36.3375 48.1781V39.4875C36.3375 36.2812 38.925 33.6937 42.1312 33.6937C45.3375 33.6937 47.925 36.2812 47.925 39.4875V48.1781C47.925 50.9062 46.7719 53.5219 44.7469 55.35Z" fill="white"/>
<path d="M42.1597 52.4812C38.9534 52.4812 36.3659 49.8938 36.3659 46.6875V39.4875C36.3659 36.2812 38.9534 33.6937 42.1597 33.6937C45.3659 33.6937 47.9534 36.2812 47.9534 39.4875V46.6875C47.9253 49.8938 45.3378 52.4812 42.1597 52.4812Z" fill="#F4C6AD"/>
<path d="M75.9375 64.6875C77.4844 64.6875 78.75 65.8415 78.75 67.2522V73.125H73.125V67.2522C73.125 65.8415 74.3625 64.6875 75.9375 64.6875Z" fill="#F4C6AD"/>
<path d="M73.125 61.2H70.3125V72.45H73.125V61.2Z" fill="#7D4533"/>
<path d="M80.046 30.9094C79.2878 30.9656 78.7258 31.6125 78.7258 32.3719V44.8875C78.7258 46.4063 77.5744 47.7 76.0579 47.7844C74.457 47.8688 73.109 46.575 73.109 44.9719V32.3719C73.109 31.6125 72.5473 30.9656 71.7891 30.9094C70.9746 30.8531 70.3004 31.5 70.3004 32.3156V44.8875C70.3004 46.4063 69.149 47.7 67.6325 47.7844C66.0316 47.8688 64.6836 46.575 64.6836 44.9719V32.3719C64.6836 31.6125 64.1219 30.9656 63.3634 30.9094C62.5492 30.8531 61.875 31.5 61.875 32.3156V52.2281C61.875 54.4219 63.6443 56.25 65.835 56.25H69.5984V61.2C69.5984 61.5375 69.8791 61.8187 70.2163 61.8187H73.2212C73.5584 61.8187 73.8391 61.5375 73.8391 61.2V56.25H77.6025C79.7932 56.25 81.5625 54.4219 81.5625 52.2281V32.3156C81.5344 31.5 80.8605 30.8531 80.046 30.9094Z" fill="#D3D3D3"/>
<path d="M68.0881 69.6375C67.0399 69.6375 66.1449 70.5375 66.1193 71.6625C66.0937 72.4219 66.4518 73.0969 66.9631 73.4906C66.4518 73.8562 66.0938 74.5031 66.0938 75.2344C66.0938 75.9656 66.4262 76.6125 66.9631 76.9781C66.4518 77.3438 66.0938 77.9906 66.0938 78.7219C66.0938 79.4531 66.4262 80.1 66.9631 80.4656C66.4262 80.8594 66.0937 81.5344 66.1193 82.2938C66.1449 83.475 67.0399 84.375 68.0881 84.375H76.5256C77.753 84.375 78.75 83.2781 78.75 81.9281V72.0563C78.75 70.7063 77.753 69.6094 76.5256 69.6094H68.0881V69.6375Z" fill="#FFD7C2"/>
<path d="M33.2153 29.9812C33.2153 32.5133 31.1631 34.5656 28.631 34.5656C26.0992 34.5656 24.0467 32.5133 24.0467 29.9812C24.0467 27.4494 26.0992 25.397 28.631 25.397C31.1631 25.397 33.2153 27.4494 33.2153 29.9812Z" fill="#F4C6AD"/>
<path d="M60.5528 29.9812C60.5528 32.5133 58.5006 34.5656 55.9685 34.5656C53.4367 34.5656 51.3841 32.5133 51.3841 29.9812C51.3841 27.4494 53.4367 25.397 55.9685 25.397C58.5006 25.397 60.5528 27.4494 60.5528 29.9812Z" fill="#F4C6AD"/>
<path d="M53.6341 21.2908H44.381C41.9903 21.2908 39.6841 20.5033 37.7997 19.1251H32.4278C31.8091 19.8001 31.0497 20.3345 30.2341 20.7001C30.1216 20.7564 30.0372 20.8126 29.9247 20.8408C29.2497 21.1783 27.6467 22.247 27.6186 24.9751L28.0124 34.1719C28.3216 42.3562 34.6216 47.8125 42.2716 47.8125C49.9216 47.8125 56.1935 42.3562 56.531 34.1719L56.8966 25.4251C56.8685 21.572 54.1685 21.2908 53.6341 21.2908Z" fill="#FFD7C2"/>
<path d="M34.706 26.6624C36.3372 26.6624 37.6872 27.7874 38.5028 29.0531C37.7685 29.2807 37.0533 29.4854 36.3443 29.6882C35.1256 30.0369 33.9258 30.3803 32.681 30.825L31.3028 29.5594C30.7122 29.0531 30.7685 28.1249 31.3872 27.6749C32.3153 27.0281 33.5528 26.6624 34.706 26.6624Z" fill="black"/>
<path d="M49.8935 26.6624C48.2622 26.6624 46.9403 27.7874 46.0966 29.0531C46.8484 29.286 47.5802 29.495 48.3072 29.7025C49.511 30.0465 50.7015 30.3865 51.9466 30.825L53.3247 29.5594C53.8872 29.0531 53.831 28.1249 53.2122 27.6749C52.2841 27.0281 51.0466 26.6624 49.8935 26.6624Z" fill="black"/>
<path d="M31.2747 30.0097C31.7247 28.2378 33.2997 26.944 35.2122 26.944C37.181 26.944 38.8403 28.3503 39.206 30.2065C39.2622 30.6284 38.9528 30.994 38.531 30.994H32.0622C31.5278 30.994 31.1622 30.5159 31.2747 30.0097Z" fill="white"/>
<path d="M53.3247 30.0097C52.8747 28.2378 51.2997 26.944 49.3872 26.944C47.4185 26.944 45.7872 28.3503 45.3935 30.2065C45.3372 30.6284 45.6466 30.994 46.0685 30.994H52.5372C53.0716 30.994 53.4372 30.5159 53.3247 30.0097Z" fill="white"/>
<path d="M33.2153 30.319C33.2153 28.8847 34.3685 27.7316 35.8028 27.7316C37.2372 27.7316 38.4185 28.9128 38.3903 30.319C38.3903 30.544 38.3622 30.769 38.306 30.994H33.2997C33.2435 30.7972 33.2153 30.544 33.2153 30.319Z" fill="#7D4533"/>
<path d="M51.3841 30.319C51.3841 28.8847 50.231 27.7316 48.7966 27.7316C47.3622 27.7316 46.2091 28.9128 46.2091 30.319C46.2091 30.544 46.2372 30.769 46.2935 30.994H51.2997C51.356 30.7972 51.3841 30.544 51.3841 30.319Z" fill="#7D4533"/>
<path d="M35.8031 28.8281C36.6187 28.8281 37.2938 29.5031 37.2938 30.3187C37.2938 30.5437 37.2375 30.7969 37.125 30.9938H34.4813C34.3688 30.7969 34.3125 30.5719 34.3125 30.3187C34.3125 29.5031 34.9875 28.8281 35.8031 28.8281Z" fill="black"/>
<path d="M48.7966 28.8281C47.981 28.8281 47.306 29.5031 47.306 30.3187C47.306 30.5437 47.3622 30.7969 47.5028 30.9938H50.1185C50.231 30.7969 50.2872 30.5719 50.2872 30.3187C50.2872 29.5031 49.6122 28.8281 48.7966 28.8281Z" fill="black"/>
<path d="M35.3812 29.2781C35.3812 29.5267 35.1799 29.7281 34.9312 29.7281C34.6826 29.7281 34.4812 29.5267 34.4812 29.2781C34.4812 29.0295 34.6826 28.8281 34.9312 28.8281C35.1799 28.8281 35.3812 29.0295 35.3812 29.2781Z" fill="white"/>
<path d="M48.375 29.2781C48.375 29.5267 48.1736 29.7281 47.925 29.7281C47.6764 29.7281 47.475 29.5267 47.475 29.2781C47.475 29.0295 47.6764 28.8281 47.925 28.8281C48.1736 28.8281 48.375 29.0295 48.375 29.2781Z" fill="white"/>
<path d="M42.2716 39.0659C40.7528 39.0659 39.3466 38.7003 38.1372 38.0815C37.7435 37.8565 37.2935 38.3347 37.5466 38.7284C38.5591 40.2753 40.2747 41.2878 42.2716 41.2878C44.2685 41.2878 45.9841 40.2753 46.9966 38.7284C47.2497 38.3347 46.7997 37.8847 46.406 38.0815C45.1966 38.7003 43.7622 39.0659 42.2716 39.0659Z" fill="#990838"/>
<path d="M41.2028 29.6438L39.7403 34.3969C39.431 35.3812 40.1622 36.3656 41.2028 36.3656H43.3966C44.4091 36.3656 45.1403 35.3812 44.8591 34.3969L43.3966 29.6438C43.0028 28.6031 41.5122 28.6031 41.2028 29.6438Z" fill="#E5AF93"/>
<path d="M31.3031 24.778C31.4438 25.0311 31.6969 25.1717 31.9781 25.1717C32.1188 25.1717 32.2313 25.1436 32.3719 25.0592C32.3719 25.0592 34.4813 23.878 36.8438 24.2998C37.2656 24.3842 37.6594 24.103 37.7438 23.653C37.8281 23.2311 37.5469 22.8373 37.125 22.753C34.3229 22.2411 31.9084 23.5356 31.6111 23.695C31.5979 23.702 31.5844 23.7092 31.5844 23.7092C31.2188 23.9342 31.0781 24.4123 31.3031 24.778Z" fill="#212121"/>
<path d="M52.1438 25.0592C52.2844 25.1436 52.3969 25.1717 52.5375 25.1717C52.8188 25.1717 53.0719 25.0311 53.1844 24.8061C53.4094 24.4405 53.2687 23.9624 52.9031 23.7374C52.8187 23.6811 50.2875 22.2467 47.3906 22.7811C46.9688 22.8374 46.6875 23.2592 46.7719 23.6811C46.8281 24.103 47.25 24.3842 47.6719 24.2999C49.8068 23.8882 51.7539 24.8649 52.092 25.0346C52.1238 25.0504 52.1438 25.0592 52.1438 25.0592Z" fill="#212121"/>
</svg>
